:SAMPLES-PER-SECOND 24
:FULLY-SPECIFIED
:DEGREES
337
root  4.23938 38.7274 17.45 5.14404 -30.5914 -0.892334
RightUpLeg  1.80874 4.06324 -17.9539
RightLeg  20.8172 -10.5569 -4.83454
RightFoot  -4.34027 -1.11093 17.5959
RightToes  -2.08645e-008 3.77894e-005 6.81332e-007
Spine  2.535 3.28626 5.15874
Spine1  5.6541 4.62668 -5.31254
HEad  -32.9802 15.8773 -12.3212
LeftShoulder1  7.54018 -13.2108 -38.9661
LeftArm  -14.256 22.4655 -33.2904
LeftForeArm  131.47 -78.6885 -121.99
LeftHand  -0.55838 0.573553 13.4941
RightShoulder  4.25039 6.85459 35.1319
RightArm  4.93104 -24.4693 33.1152
RightForeArm  107.927 80.2407 98.4663
RightHand  -0.518698 7.50292 -5.01973
LeftUpLeg  -18.6535 -2.1426 8.04313
LeftLeg  24.0842 8.53475 4.48681
LeftFoot  -6.40826 0.486479 -10.3757
LeftToes  1.24767e-006 1.47042e-008 1.32732e-009
338
root  4.80584 39.2231 18.1656 6.45587 -32.6507 -1.91614
RightUpLeg  -4.27572 6.0224 -17.1733
RightLeg  27.9791 -12.6996 -7.4392
RightFoot  1.49892 -1.0422 9.33377
RightToes  -2.08645e-008 3.77894e-005 6.81332e-007
Spine  2.45845 3.78208 4.87627
Spine1  4.27363 5.05925 -5.55845
HEad  -32.3978 17.5763 -11.8923
LeftShoulder1  7.10782 -12.7335 -37.6827
LeftArm  -15.5362 21.5698 -39.3471
LeftForeArm  142.526 -76.4974 -134.588
LeftHand  -0.523367 1.11753 14.2014
RightShoulder  4.26844 6.91795 35.0559
RightArm  8.48014 -23.7906 35.6651
RightForeArm  113.633 80.2789 101.48
RightHand  -0.420696 8.25103 -3.94952
LeftUpLeg  -15.9553 0.136179 7.38086
LeftLeg  19.208 8.72726 3.69094
LeftFoot  -6.06775 0.450569 -8.98353
LeftToes  1.24767e-006 1.47042e-008 1.32732e-009
339
root  5.22735 39.6074 18.7155 7.85016 -33.5842 -3.02032
RightUpLeg  -9.49903 5.34563 -15.4192
RightLeg  33.3069 -11.604 -8.32249
RightFoot  2.08792 -0.428798 3.72125
RightToes  -2.08645e-008 3.77894e-005 6.81332e-007
Spine  2.20106 3.35405 2.68642
Spine1  3.17024 4.06788 -3.37124
HEad  -32.9136 19.7085 -12.0993
LeftShoulder1  6.75068 -12.347 -36.5367
LeftArm  -13.9505 20.2984 -40.9534
LeftForeArm  149.75 -74.3784 -142.266
LeftHand  -0.531662 0.822311 13.5272
RightShoulder  4.24134 6.95329 34.6632
RightArm  13.8299 -21.1624 37.0152
RightForeArm  121.027 80.3359 104.886
RightHand  -0.238479 9.32623 -2.27779
LeftUpLeg  -14.3213 -0.368291 7.13575
LeftLeg  15.5009 10.4211 3.86029
LeftFoot  -4.77093 0.487429 -7.97757
LeftToes  1.24767e-006 1.47042e-008 1.32732e-009
340
root  5.58361 39.8388 19.127 8.46527 -32.9035 -4.28516
RightUpLeg  -12.4818 2.93574 -12.5371
RightLeg  35.8154 -8.83411 -7.04115
RightFoot  -0.64587 -0.349741 3.74334
RightToes  -2.08645e-008 3.77894e-005 6.81332e-007
Spine  3.20799 2.48773 0.525367
Spine1  2.06963 2.60611 -0.544266
HEad  -33.7343 20.4717 -12.3297
LeftShoulder1  6.56499 -12.2492 -35.6433
LeftArm  -8.9451 16.9258 -38.1465
LeftForeArm  150.787 -74.2224 -142.831
LeftHand  -0.533641 0.0404176 11.6583
RightShoulder  4.19353 6.96421 34.1689
RightArm  18.146 -18.9058 37.694
RightForeArm  125.765 80.3468 107.151
RightHand  -0.168249 10.1019 -1.65592
LeftUpLeg  -12.9771 -1.44967 7.20219
LeftLeg  13.2492 10.8951 4.1737
LeftFoot  -4.21167 0.509092 -7.76113
LeftToes  1.24767e-006 1.47042e-008 1.32732e-009
341
root  5.84396 39.9148 19.4486 8.48492 -32.0334 -5.19995
RightUpLeg  -14.4508 1.45355 -9.14992
RightLeg  35.9569 -7.87863 -6.35841
RightFoot  -3.4011 -0.327949 4.39436
RightToes  -2.08645e-008 3.77894e-005 6.81332e-007
Spine  4.4616 2.05839 -1.61809
Spine1  1.69118 1.70887 1.71338
HEad  -34.349 20.0234 -12.1464
LeftShoulder1  6.48262 -12.2618 -35.0989
LeftArm  -1.55171 10.5383 -32.9193
LeftForeArm  144.483 -76.2537 -135.831
LeftHand  -0.549144 -0.80854 10.4128
RightShoulder  4.17193 6.96865 33.9472
RightArm  20.1348 -17.5892 37.5284
RightForeArm  123.922 80.4448 105.211
RightHand  -0.125553 10.0247 -1.34701
LeftUpLeg  -11.945 -0.845083 7.24647
LeftLeg  12.2751 9.52929 3.93207
LeftFoot  -4.84536 0.435017 -7.14444
LeftToes  1.24767e-006 1.47042e-008 1.32732e-009
342
root  5.99594 39.8965 19.7467 8.57343 -30.7652 -5.38708
RightUpLeg  -16.0104 0.0742077 -5.85452
RightLeg  33.3437 -9.64865 -7.0108
RightFoot  -5.6948 -0.216661 3.60602
RightToes  -2.08645e-008 3.77894e-005 6.81332e-007
Spine  4.35421 1.80739 -4.11202
Spine1  2.59988 1.03572 3.61477
HEad  -34.9062 18.9834 -11.3957
LeftShoulder1  6.6929 -12.5143 -35.7486
LeftArm  6.14513 2.23637 -26.1136
LeftForeArm  131.699 -78.5021 -123.031
LeftHand  -0.561592 -1.5796 9.52552
RightShoulder  4.1885 6.98062 34.0589
RightArm  19.4127 -17.3161 36.7434
RightForeArm  114.214 80.6962 95.9868
RightHand  -0.0679753 10.0082 -0.91959
LeftUpLeg  -12.2014 -1.11482 7.00165
LeftLeg  12.8034 8.60757 3.83048
LeftFoot  -5.39445 0.373291 -6.56122
LeftToes  1.24767e-006 1.47042e-008 1.32732e-009
343
root  6.06874 39.849 20.0817 8.79169 -28.7941 -5.20477
RightUpLeg  -16.6982 -2.61653 -2.69282
RightLeg  27.5417 -11.7789 -6.81771
RightFoot  -7.25763 -0.168091 3.34155
RightToes  -2.08645e-008 3.77894e-005 6.81332e-007
Spine  3.36749 1.35528 -6.37793
Spine1  4.12136 0.195135 5.37434
HEad  -35.4515 17.7418 -10.5834
LeftShoulder1  6.97681 -12.829 -36.6586
LeftArm  12.4867 -4.73451 -20.1445
LeftForeArm  123.091 -79.4183 -114.218
LeftHand  -0.528487 -2.33137 8.15421
RightShoulder  4.18895 6.98184 34.0586
RightArm  17.2139 -18.2731 35.7628
RightForeArm  102.146 80.708 83.3332
RightHand  -0.185577 9.82335 -1.81611
LeftUpLeg  -12.9647 -2.7901 6.53615
LeftLeg  13.6223 8.35292 4.09633
LeftFoot  -5.88377 0.336962 -6.32625
LeftToes  1.24767e-006 1.47042e-008 1.32732e-009
344
root  6.05076 39.8508 20.4736 9.00134 -26.8164 -4.88104
RightUpLeg  -16.4854 -5.49709 0.243851
RightLeg  19.5779 -11.565 -4.77978
RightFoot  -7.82791 -0.162692 3.54262
RightToes  -2.08645e-008 3.77894e-005 6.81332e-007
Spine  2.56613 0.941812 -8.4444
Spine1  5.00451 -0.619932 7.33057
HEad  -35.6391 16.7945 -10.2295
LeftShoulder1  6.84884 -12.7442 -36.1052
LeftArm  17.1231 -8.07098 -18.0701
LeftForeArm  123.176 -79.6253 -112.597
LeftHand  -0.423087 -3.01777 6.07781
RightShoulder  4.18779 6.99096 34.013
RightArm  15.149 -20.4713 34.1894
RightForeArm  96.3179 80.5522 77.1785
RightHand  -0.334261 9.07394 -3.08387
LeftUpLeg  -12.9851 -3.32857 5.87654
LeftLeg  13.1457 7.0333 4.07662
LeftFoot  -6.30243 0.300235 -5.96339
LeftToes  1.24767e-006 1.47042e-008 1.32732e-009
345
root  5.94707 39.922 20.9008 9.20056 -25.2002 -4.25647
RightUpLeg  -16.3604 -4.64495 1.71468
RightLeg  12.9721 -11.4212 -2.25401
RightFoot  -7.02062 -0.15178 2.69822
RightToes  -2.08645e-008 3.77894e-005 6.81332e-007
Spine  2.18689 0.644205 -10.047
Spine1  4.84556 -1.17725 8.87505
HEad  -35.1816 16.2775 -10.2132
LeftShoulder1  6.50631 -12.4223 -34.8342
LeftArm  20.3121 -7.87427 -18.8605
LeftForeArm  126.896 -79.5589 -114.583
LeftHand  -0.280631 -3.58711 3.88704
RightShoulder  4.20624 7.01044 34.1137
RightArm  13.6085 -23.4095 32.2934
RightForeArm  97.0861 80.5599 79.2334
RightHand  -0.38933 8.66042 -3.59243
LeftUpLeg  -12.2485 -2.02755 4.97043
LeftLeg  11.2689 4.30457 3.53737
LeftFoot  -6.16667 0.29743 -5.7633
LeftToes  1.24767e-006 1.47042e-008 1.32732e-009
346
root  5.8289 39.9915 21.3501 9.24634 -23.863 -3.362
RightUpLeg  -17.1627 -2.60665 2.28478
RightLeg  10.8368 -12.9338 -1.55016
RightFoot  -4.98896 0.00504821 -0.700698
RightToes  -2.08645e-008 3.77894e-005 6.81332e-007
Spine  1.96414 0.294768 -10.0997
Spine1  4.51906 -1.42637 8.70179
HEad  -34.3127 15.8701 -10.3469
LeftShoulder1  6.42409 -12.3253 -34.5712
LeftArm  21.9105 -5.23323 -19.52
LeftForeArm  131.237 -79.2105 -118.619
LeftHand  -0.190271 -4.01385 2.62108
RightShoulder  4.19237 6.99211 34.0522
RightArm  12.3122 -25.8871 31.2978
RightForeArm  97.9904 80.5615 81.4617
RightHand  -0.312805 8.80427 -2.94021
LeftUpLeg  -11.1144 -0.623953 4.04543
LeftLeg  8.97365 1.83433 2.68632
LeftFoot  -6.05648 0.302792 -5.77287
LeftToes  1.24767e-006 1.47042e-008 1.32732e-009
